<svg xmlns="http://www.w3.org/2000/svg" width="547" height="448" viewBox="0 0 547 448">
    <g fill="none" fill-rule="evenodd">
        <path fill="#1D191F" d="M.947 423.902h545.485v-.65H.947zM277.23 447.711h175.262v-.647H277.231z"/>
        <path fill="#DAE5E2" stroke="#29466E" stroke-width="5" d="M400.191 391.316h-.005V62.996c0-15.266-12.38-27.662-27.66-27.662H235.963c-15.282 0-27.663 12.396-27.663 27.661v332.922c0 15.28 12.381 27.662 27.663 27.662h136.561c11.409 0 21.196-6.904 25.428-16.76a27.6 27.6 0 0 0 2.238-10.902v-4.6"/>
        <path fill="#FFFFFE" d="M279.729 53.842a2.636 2.636 0 1 1-2.633-2.636 2.634 2.634 0 0 1 2.633 2.636M334.5 57.109h-45.936a2.264 2.264 0 0 1-2.264-2.264v-2.009a2.264 2.264 0 0 1 2.264-2.264H334.5a2.264 2.264 0 0 1 2.264 2.264v2.009a2.264 2.264 0 0 1-2.264 2.264M314.774 402.5c0 5.813-4.716 10.529-10.53 10.529-5.815 0-10.528-4.716-10.528-10.53 0-5.815 4.713-10.528 10.529-10.528 5.813 0 10.529 4.713 10.529 10.529"/>
        <path fill="#FFF" stroke="#29466E" stroke-width="2" d="M219.545 383.174h169.4V70.96h-169.4v312.213zm169.4 0h1l-1 1v-1z"/>
        <path fill="#2E5998" d="M240.68 86.646a4.522 4.522 0 1 1-9.045 0 4.522 4.522 0 0 1 9.045 0"/>
        <path fill="#E26248" d="M255.72 86.646a4.522 4.522 0 1 1-9.045 0 4.522 4.522 0 0 1 9.045 0"/>
        <path fill="#D0A09F" d="M270.761 86.646h-.34a4.188 4.188 0 0 1-4.183 4.183 4.188 4.188 0 0 1-4.18-4.183 4.184 4.184 0 0 1 4.18-4.181 4.185 4.185 0 0 1 4.183 4.18h.68a4.861 4.861 0 1 0-9.723.003 4.861 4.861 0 0 0 9.723-.002h-.34"/>
        <path fill="#F9D94E" d="M371.589 209.112h-136.67a4.476 4.476 0 0 1-4.474-4.475v-89.14a4.476 4.476 0 0 1 4.474-4.476h136.67a4.473 4.473 0 0 1 4.474 4.475v89.141a4.474 4.474 0 0 1-4.474 4.475"/>
        <path fill="#FFFFFE" d="M283.71 147.361v.877h34.11l2.774 35.02h-38.845l2.836-35.828-.875-.069v.877-.877l-.875-.069-2.987 37.722h42.645l-3.05-38.53h-36.546l-.062.808.875.07"/>
        <path fill="#FFFFFE" d="M293.45 157.686v-19.382a8.128 8.128 0 0 1 8.118-8.119 8.128 8.128 0 0 1 8.118 8.119v19.382h1.754v-19.382c0-5.453-4.42-9.873-9.872-9.875-5.453.002-9.873 4.422-9.873 9.875v19.382h1.754"/>
        <path fill="#29466E" stroke="#29466E" stroke-width="2" d="M369.929 362.278v-.572h-133.71a3.906 3.906 0 0 1-3.9-3.9v-125.57a3.904 3.904 0 0 1 3.9-3.898h133.71a3.904 3.904 0 0 1 3.9 3.899v125.568a3.906 3.906 0 0 1-3.9 3.9v1.144a5.044 5.044 0 0 0 5.044-5.044V232.237a5.045 5.045 0 0 0-5.044-5.044h-133.71a5.044 5.044 0 0 0-5.044 5.044v125.568a5.042 5.042 0 0 0 5.044 5.044h133.71v-.571"/>
        <path fill="#000" d="M257.286 246.963l2.475 5.019 5.538.803-4.006 3.908.946 5.515-4.953-2.604-4.952 2.604.944-5.515-4.007-3.908 5.538-.803 2.477-5.02M279.534 246.963l2.477 5.019 5.54.803-4.01 3.908.947 5.515-4.954-2.604-4.953 2.604.946-5.515-4.008-3.908 5.537-.803 2.478-5.02M301.783 246.963l2.478 5.019 5.537.803-4.006 3.908.946 5.515-4.955-2.604-4.952 2.604.946-5.515-4.006-3.908 5.537-.803 2.475-5.02"/>
        <path fill="#E6E9F0" d="M324.033 246.963l2.475 5.019 5.538.803-4.006 3.908.945 5.515-4.952-2.604-4.954 2.604.945-5.515-4.006-3.908 5.538-.803 2.477-5.02M346.283 246.963l2.477 5.019 5.538.803-4.009 3.908.946 5.515-4.952-2.604-4.955 2.604.949-5.515-4.011-3.908 5.54-.803 2.477-5.02"/>
        <path fill="#666" d="M344.504 341.467v-.546h-85.44c-3.314 0-6.31-1.34-8.482-3.513a11.96 11.96 0 0 1-3.513-8.481c0-3.315 1.344-6.311 3.513-8.483a11.951 11.951 0 0 1 8.481-3.513h85.44c3.316 0 6.31 1.34 8.482 3.513a11.953 11.953 0 0 1 3.512 8.483c0 3.313-1.34 6.31-3.512 8.481a11.947 11.947 0 0 1-8.481 3.513v1.093c7.227 0 13.086-5.86 13.086-13.087 0-7.23-5.859-13.089-13.086-13.089h-85.44c-7.228 0-13.085 5.86-13.087 13.089.002 7.228 5.859 13.087 13.086 13.087h85.44v-.547M246.523 281.835h110.52v-1.092h-110.52zM246.523 299.383h56.55v-1.09h-56.55z"/>
        <path fill="#50E3C2" d="M38.366 106.515h40.957V65.234H38.366z"/>
        <path fill="#50E3C2" d="M79.323 99.856v14.393L67.079 99.856h12.244"/>
        <path fill="#FFFFFE" d="M67.662 80.24a5.29 5.29 0 0 0-7.485.078l-1.348 1.378-1.386-1.366a5.291 5.291 0 1 0-7.425 7.54l5.147 5.071.028.032a5.284 5.284 0 0 0 7.485-.078l5.064-5.17a5.294 5.294 0 0 0-.08-7.485"/>
        <path fill="#FF575A" d="M503.028 237.423c0 17.649-14.306 31.955-31.953 31.955-17.646 0-31.954-14.306-31.954-31.955 0-17.646 14.308-31.952 31.954-31.952 17.647 0 31.953 14.306 31.953 31.952"/>
        <path fill="#FEFCFB" d="M465.689 248.708c5.533.094 11.133.17 16.22-.184 1.612-.11 3.001-2.67 1.048-3.476.822-.425 1.657-.831 2.015-1.754.34-.875-.066-2.06-.978-2.285 1.917.476 2.675-2.569 1.178-3.554.792-.672 1.454-1.565 1.619-2.592.167-1.026-.255-2.188-1.169-2.684-.599-.326-1.31-.34-1.993-.344-2.3-.016-4.6-.034-6.901-.053.624-3.6.81-7.521-1.02-10.685-.55-.953-2.031-2.094-3.207-1.362-1.102.69-.794 2.395-.74 3.474.23 4.477-2.318 8.982-6.274 11.092 0 0 .262 9.54.202 14.407M455.323 248.694h8.36V234.3h-8.36z"/>
        <path fill="#D0A09F" d="M40.159 192.288h-.572c-.007 3.884-3.168 7.032-7.08 7.039-3.915-.007-7.076-3.155-7.083-7.04.007-3.884 3.168-7.032 7.083-7.039 3.912.007 7.073 3.155 7.08 7.04h1.144c0-4.523-3.685-8.183-8.224-8.183-4.542 0-8.227 3.66-8.229 8.183.002 4.523 3.687 8.182 8.229 8.182 4.539 0 8.224-3.66 8.224-8.182h-.572M487.9 321.495h-.572c-.005 2.744-2.238 4.966-5.003 4.97-2.769 0-5-2.226-5.005-4.97.005-2.746 2.236-4.97 5.005-4.975 2.765.004 4.998 2.23 5.003 4.975h1.143c0-3.382-2.755-6.118-6.146-6.12-3.395 0-6.148 2.738-6.148 6.12 0 3.38 2.753 6.11 6.148 6.116 3.391 0 6.146-2.736 6.146-6.116h-.571M487.682 94.978v-.572h-11.005V84.037h10.43v10.94h.575v-.571.572h.571V82.894h-12.721v12.658h12.721v-.574h-.571M415.126 1.352v.572h30.898c1.26.002 2.294 1.04 2.294 2.333v17.377c0 1.295-1.033 2.33-2.294 2.333H433.18l-9.76 10.887V24.408l-8.337-.168c-1.244-.025-2.25-1.058-2.25-2.332V4.257c0-1.293 1.036-2.33 2.294-2.333V.781c-1.903.002-3.435 1.56-3.437 3.476v17.65c0 1.888 1.492 3.438 3.368 3.477l7.219.144v12.316L433.69 25.11h12.333c1.906 0 3.435-1.56 3.437-3.476V4.257c-.002-1.913-1.53-3.474-3.437-3.476h-30.898v.571"/>
        <path fill="#00C0CB" d="M540.038 155.319H429.234a3.388 3.388 0 0 1-3.39-3.389v-27.498a3.39 3.39 0 0 1 3.39-3.389h110.804a3.39 3.39 0 0 1 3.39 3.389v27.498a3.388 3.388 0 0 1-3.39 3.389"/>
        <path fill="#FFFFFE" d="M438.85 134.617h64.93v-1.093h-64.93zM438.85 142.838h16.939v-1.093h-16.94z"/>
        <path fill="#00C0CB" d="M438.85 151.441v15.803l16.799-15.803h-16.8"/>
        <path fill="#1D191F" d="M163.739 139.162c-5.448-6.802-11.626-13.605-11.626-13.605l-12.196-11.503-4.58-5.677-21.94 14.138s.144 12.57-7.68 23.912c-7.823 11.342.867 30.134 10.138 32.395l14.892-16.338 26.51 9.124c4.726-4.828 16.545-19.885 6.482-32.446"/>
        <path fill="#E59395" d="M188.122 184.332c-.802.026-1.6-.036-2.386-.188l-46.492-5.134c-6.693-.996-16.48-10.811-13.636-16.95a10.133 10.133 0 0 1 11.925-5.492l48.1 10.258 2.489 17.506"/>
        <path fill="#E59395" d="M183.553 167.777l41.77-28.486 5.82 7.39-34.43 34.104c-6 5.244-17.353 4.934-19.869-2.626-1.742-5.237 1.784-7.882 6.709-10.382"/>
        <path fill="#E59395" d="M225.458 142.453c2.025 4.816 7.572 7.076 12.386 5.048a9.458 9.458 0 0 0 5.05-12.388 9.46 9.46 0 1 0-17.436 7.34"/>
        <path fill="#E59395" d="M230.966 129.885l8.233-6.091c.657-.56 1.674-.499 2.245.137.49.551.48 1.36-.023 1.906l-7.61 8.015-2.845-3.967"/>
        <path fill="#2E5998" d="M153.99 156.191c10.481 1.194 21.224 7.455 21.224 7.455l-8.798 19.738-9.572-2.431-2.853-24.762"/>
        <path fill="#264F91" d="M162.32 182.344l-1.205-13.96 8.598 7.598-3.297 7.402-4.096-1.04"/>
        <path fill="#1D191F" d="M69.333 306.574l1.123-35.764-.35-.009.34.076a4.344 4.344 0 0 1 4.012-3.366l.23-.004a4.349 4.349 0 0 1 4.336 4.339v.108l-.002.02 3.602 34.933.696-.071-3.6-34.91-.347.035.35.009v-.124a5.039 5.039 0 0 0-5.036-5.037l-.266.007a5.038 5.038 0 0 0-4.654 3.907l-.007.032-1.125 35.798.698.021"/>
        <path fill="#2E5998" d="M53.363 304.551l37.58-1.947-6.388 65.278-45.762-2.985 14.57-60.346"/>
        <path fill="#3477AF" d="M84.555 367.882l7.63-4.727 7.457 1.072-4.172-61-4.528-.623-6.387 65.278"/>
        <path fill="#1D191F" d="M63.141 309.384l-.349.019.002.06c0 .596-.47 1.099-1.076 1.129l-.06.002c-.597 0-1.1-.47-1.13-1.074l-.002-.062c0-.597.47-1.1 1.075-1.13l.057-.002c.6 0 1.102.47 1.134 1.077l.35-.019.348-.018a1.836 1.836 0 0 0-1.832-1.738l-.094.002a1.83 1.83 0 0 0-1.736 1.828l.002.098a1.83 1.83 0 0 0 1.828 1.736l.096-.002a1.833 1.833 0 0 0 1.738-1.828l-.002-.096-.349.018M80.067 309.288l-.347.018v.058c0 .601-.47 1.104-1.075 1.134l-.06.002c-.599 0-1.099-.473-1.131-1.074l-.002-.062c0-.597.47-1.1 1.076-1.13l.06-.002c.597 0 1.1.47 1.132 1.074l.347-.018.349-.019a1.832 1.832 0 0 0-1.828-1.735l-.096.002a1.834 1.834 0 0 0-1.738 1.828l.004.098a1.83 1.83 0 0 0 1.828 1.736l.094-.002a1.834 1.834 0 0 0 1.738-1.832l-.002-.095-.35.019"/>
        <path fill="#1D191F" d="M61.922 308.057l8.525-37.178a4.344 4.344 0 0 1 4.01-3.368l.23-.004a4.349 4.349 0 0 1 4.337 4.339v.108l-.863 35.922.698.018.863-35.924v-.124a5.039 5.039 0 0 0-5.035-5.037l-.266.007a5.038 5.038 0 0 0-4.654 3.907l-8.525 37.178.68.156"/>
        <path fill="#E59395" d="M81.518 209.376c.31-.739.702-1.44 1.168-2.089l24.112-40.082c3.703-5.662 16.714-10.444 21.097-5.292a10.128 10.128 0 0 1 .002 13.128L98.46 214.439l-16.941-5.063"/>
        <path fill="#E59395" d="M98.418 215.5L79.21 264.115l-7.918-1.562 8.756-49.28c1.532-7.817 10.695-14.526 17.314-10.09 4.587 3.074 3.416 7.324 1.056 12.315"/>
        <path fill="#2E5998" d="M118.128 157.417s-12.627 4.262-21.173 19.043l20.126 16.151s19.442-17.116 12.247-32.264l-11.2-2.93"/>
        <path fill="#E59395" d="M68.22 270.999c-3.417-4.103-2.859-10.199 1.244-13.615 4.105-3.416 10.2-2.858 13.617 1.244 3.416 4.103 2.86 10.199-1.244 13.615-4.103 3.419-10.199 2.863-13.617-1.244"/>
        <path fill="#2E5998" d="M119.467 157.121l20.011-3.134 14.513 2.204c6.192 1.09 10.467 6.812 9.762 13.06l-4.7 46.703h-41.972l-7.542-40.952a19.248 19.248 0 0 1 1.343-11.305 11.317 11.317 0 0 1 8.585-6.576"/>
        <path fill="#264F91" d="M113.224 195.006l7.577-10.55-3.72 31.498-3.857-20.948"/>
        <path fill="#2E5998" d="M157.712 165.118s9.537 7.567 9.175 15.715c-.36 8.15-11.553 13.46-11.553 13.46l2.378-29.175"/>
        <path fill="#E59395" d="M130.359 155.415l-5.641.776s2.805 6.647 14.997 6.65c10.205.002 9.17-7.426 9.17-7.426l-9.407-1.428-9.12 1.428M154.37 404.36l-14.281-4.42 12.577-40.608 14.278 4.422-12.575 40.605"/>
        <path fill="#161315" d="M140.888 397.361l18.454 5.715 11.494 10.607a9.58 9.58 0 0 1 2.447 9.675l-36.907-11.429 4.512-14.568"/>
        <path fill="#161315" d="M160.63 404.23l-2.41-6.912s-6.13-3.2-7.751 4.043l10.161 2.87"/>
        <path fill="#E3AF43" d="M139.308 250.675l17.591 51.998-18.75 74.347 35.837 7.312 18.447-76.576a16.662 16.662 0 0 0-.498-10.258l-33.171-81.555-41.972.142 22.516 34.59"/>
        <path fill="#D29E3E" d="M140.915 365.297l36.154 6.683.312-1.692-36.153-6.683M144.814 266.946l-.39-18.528s13.738 18.765 9.374 45.078l-8.984-26.55M143.664 236.025h1.721V221.68h-1.721zM125.025 221.68h1.722v-5.726h-1.722zM154.38 221.68h1.723v-5.726h-1.722z"/>
        <path fill="#E59395" d="M115.242 410.577h14.947v-42.51h-14.947z"/>
        <path fill="#1D191F" d="M115.242 407.88h19.318l14.118 6.73a9.579 9.579 0 0 1 5.2 8.519h-38.636v-15.25"/>
        <path fill="#1D191F" d="M136.133 408.6l-4.349-5.889s-6.802-1.242-6.208 6.153l10.557-.264"/>
        <path fill="#E3AF43" d="M117.081 215.954s-7.86 4.904-7.86 29.15c0 27.04 3.278 78.113-5.901 136.11l36.158.308s10.84-57.207 7.09-90.06c-3.75-32.857 0-50.818 0-50.818l-15.64-12.88-13.847-11.81"/>
        <path fill="#D29E3E" d="M104.947 370.768h36.515v-1.722h-36.515zM122.215 227.698l.018.12c.037.263.118.934.118 1.845.002 1.557-.237 3.807-1.277 5.942-1.047 2.133-2.847 4.17-6.142 5.443l.618 1.608c3.696-1.415 5.88-3.83 7.071-6.298 1.199-2.47 1.451-4.968 1.451-6.695 0-1.35-.156-2.232-.163-2.27l-1.694.305M113.224 222.541h47.852v-1.722h-47.852z"/>
        <path fill="#1D191F" d="M158.357 118.283c-.027 12.483-8.951 23.09-21.418 23.726-12.467.639-23.09-8.954-23.726-21.418-.636-12.467 8.952-23.09 21.418-23.726 12.47-.638 23.759 7.349 23.726 21.418"/>
        <path fill="#E59395" d="M130.359 154.451l.075-19.35 13.875.062-.074 19.352a6.939 6.939 0 0 1-13.877-.064"/>
        <path fill="#1D191F" d="M128.28 132.72s3.155 16.579 15.974 16.313l.055-8.562-16.028-7.75"/>
        <path fill="#E59395" d="M141.762 144.82c8.674-.441 15.505-6.036 15.062-14.71l-.763-14.92c-.328-6.4-7.661-12.787-11.435-12.595l-13.716 4.61c-3.775.193-6.707 3.442-6.514 7.217l.758 14.859c.443 8.676 9.294 15.913 16.608 15.539"/>
        <path fill="#191B1F" d="M141.721 124.115a1.251 1.251 0 1 1-2.501-.054 1.251 1.251 0 0 1 2.501.054M153.15 123.435a1.252 1.252 0 1 1-2.502-.05 1.252 1.252 0 0 1 2.502.05"/>
        <path fill="#AB626C" d="M146.811 126.758l1.589 2.626.487-.294-.567-.034.183.011-.183-.02v.009l.183.011-.183-.02-.198.473c-.167.2-.413.415-1.113.424a3.894 3.894 0 0 1-.843-.098.567.567 0 1 0-.239 1.11c.397.086.756.125 1.082.125 1.044.014 1.75-.457 2.077-.955.336-.494.36-.944.368-1.001l-.08-.329-1.592-2.626a.568.568 0 1 0-.971.59"/>
        <path fill="#191B1F" d="M136.923 120.614h.234l5.636-.528a1.146 1.146 0 0 0-.213-2.28l-5.639.528c-.629.06-1.09.618-1.03 1.249.05.55.484.971 1.012 1.03M150.526 119.608l.232.002 3.446-.321a1.145 1.145 0 0 0-.211-2.28l-3.446.322a1.144 1.144 0 0 0-1.033 1.246c.05.554.482.976 1.012 1.031"/>
        <path fill="#FFFCEC" d="M141.055 133.597l9.98-1.325s-1.358 4.213-4.75 4.43c-4.376.277-5.23-3.105-5.23-3.105"/>
        <path fill="#1D191F" d="M149.697 105.615s-11.259 13.408-29.686 19.278c0 0-3.54-12.478 6.167-20.305 9.71-7.827 18.404-2.826 18.404-2.826l5.115 3.853"/>
        <path fill="#1D191F" d="M146.375 104.79s3.545 5.228 10.072 9.724c0 0-2.11-10.817-11.599-12.272l1.527 2.548M130.512 117.354s2.354 10.845-3.014 12.14l-1.963-10.285 4.977-1.855"/>
        <path fill="#E59395" d="M118.096 127.355a5.655 5.655 0 1 0 11.296-.579 5.655 5.655 0 0 0-11.296.579"/>
    </g>
</svg>
